# xmcd CD database file
#
# Track frame offsets:
#	150
#	35377
#	62737
#	83400
#	110800
#	142530
#	172575
#
# Disc length: 2954 seconds
#
# Revision: 0
# Processed by: cddbd v1.5.1PL0 Copyright (c) Steve Scherf et al.
# Submitted via: CDex 1.51
#
DISCID=470b8807
DTITLE=Ashley Moon - Saphire (Relaxing sound of the panpipes)
DYEAR=1995
DGENRE=New Age
TTITLE0=Sapphire
TTITLE1=Flight of the eagle
TTITLE2=Watching the clouds
TTITLE3=Rising Currents
TTITLE4=Cirrus
TTITLE5=Beyond the valleys
TTITLE6=Reaching for the sky
EXTD=YEAR: 1995
EXTT0=
EXTT1=
EXTT2=
EXTT3=
EXTT4=
EXTT5=
EXTT6=
PLAYORDER=
